<svg width="24" height="24" viewBox="0 0 24 24" fill="none" xmlns="http://www.w3.org/2000/svg">
<path d="M10.6244 7.03707C10.7216 7.02059 10.8211 7.02343 10.9172 7.04543C11.0133 7.06742 11.1041 7.10815 11.1844 7.16526C11.2647 7.22238 11.333 7.29478 11.3854 7.37831C11.4377 7.46184 11.4731 7.55487 11.4894 7.65207L12.0174 10.7701C12.0506 10.9663 12.0044 11.1677 11.8891 11.3299C11.7737 11.4922 11.5987 11.6019 11.4024 11.6351C11.2062 11.6682 11.0048 11.6221 10.8426 11.5067C10.6803 11.3914 10.5706 11.2163 10.5374 11.0201L10.0104 7.90207C9.97741 7.7061 10.0235 7.50503 10.1387 7.34303C10.2538 7.18103 10.4285 7.07035 10.6244 7.03707ZM16.0394 7.65207C16.0526 7.55213 16.0858 7.45587 16.137 7.36904C16.1882 7.28221 16.2563 7.20659 16.3374 7.14671C16.4185 7.08682 16.5108 7.04389 16.6089 7.02049C16.7069 6.99709 16.8087 6.99369 16.9081 7.0105C17.0075 7.02732 17.1025 7.06399 17.1874 7.11834C17.2723 7.17268 17.3453 7.24359 17.4022 7.32681C17.4591 7.41003 17.4986 7.50387 17.5184 7.60271C17.5382 7.70155 17.5379 7.80337 17.5174 7.90207L16.9894 11.0201C16.973 11.1173 16.9376 11.2102 16.8853 11.2937C16.8329 11.3772 16.7646 11.4496 16.6843 11.5067C16.604 11.5638 16.5132 11.6046 16.4171 11.6266C16.3211 11.6486 16.2216 11.6515 16.1244 11.6351C16.0272 11.6187 15.9343 11.5833 15.8508 11.5309C15.7673 11.4786 15.6949 11.4103 15.6378 11.3299C15.5807 11.2496 15.5399 11.1588 15.5179 11.0628C15.4959 10.9667 15.493 10.8673 15.5094 10.7701L16.0394 7.65207Z" fill="black"/>
<path fill-rule="evenodd" clip-rule="evenodd" d="M1.1701 0.050139C0.950278 -0.027751 0.708749 -0.0144722 0.498646 0.0870544C0.288543 0.188581 0.127075 0.370039 0.0497656 0.591509C-0.0275443 0.81298 -0.0143644 1.05632 0.0864061 1.268C0.187177 1.47968 0.367283 1.64236 0.587104 1.72025L0.89382 1.82758C1.67466 2.10475 2.18858 2.28757 2.56671 2.4751C2.92142 2.65084 3.07829 2.79355 3.18131 2.94452C3.28667 3.10021 3.36862 3.31487 3.41545 3.74302C3.46227 4.19121 3.46345 4.77504 3.46345 5.64784V8.85832C3.46345 10.5721 3.47984 11.807 3.64022 12.7505C3.81114 13.7578 4.15297 14.4796 4.79333 15.159C5.48871 15.8985 6.36905 16.2205 7.41915 16.3691C8.42358 16.513 9.69962 16.513 11.2742 16.513H17.6028C18.4715 16.513 19.202 16.513 19.792 16.4399C20.4206 16.3632 20.9919 16.1934 21.4918 15.7841C21.9905 15.3736 22.2703 14.8441 22.4716 14.2402C22.6625 13.6717 22.81 12.951 22.9856 12.0936L23.5803 9.18149L23.5826 9.17559L23.5943 9.11426C23.7875 8.14121 23.949 7.32267 23.99 6.66453C24.0322 5.97337 23.9537 5.29164 23.5065 4.70663C23.2314 4.34572 22.8451 4.14167 22.4927 4.01783C22.1121 3.89155 21.7186 3.80848 21.3197 3.77014C20.5155 3.68051 19.5379 3.68051 18.5803 3.68051H5.17146L5.15975 3.55312C5.09653 2.96693 4.96074 2.43264 4.62944 1.9467C4.29696 1.45605 3.85445 1.14232 3.33935 0.886373C2.85704 0.648123 2.24361 0.431103 1.5213 0.175161L1.1701 0.050139ZM5.22062 5.44969H18.5429C19.545 5.44969 20.4277 5.45087 21.1242 5.52871C21.4707 5.56881 21.7294 5.62307 21.9109 5.68676C21.9846 5.70897 22.0542 5.74324 22.1169 5.78819C22.1895 5.88491 22.2668 6.05947 22.2363 6.55602C22.2047 7.0797 22.0689 7.77794 21.8606 8.82765V8.83001L21.2752 11.6843C21.0879 12.6078 20.9591 13.2211 20.8081 13.6752C20.6641 14.1069 20.5283 14.2921 20.382 14.4124C20.2357 14.5327 20.0273 14.6294 19.5801 14.6837C19.1071 14.7426 18.4855 14.7438 17.5501 14.7438H11.3421C9.68323 14.7438 8.53246 14.7414 7.66616 14.6176C6.82796 14.4985 6.38661 14.2815 6.06702 13.9418C5.69241 13.5431 5.48988 13.1539 5.37047 12.4521C5.2417 11.6855 5.21945 10.6145 5.21945 8.85832L5.22062 5.44969ZM7.3173 23C6.61871 23 5.94874 22.7204 5.45477 22.2227C4.9608 21.725 4.68329 21.05 4.68329 20.3462C4.68329 19.6424 4.9608 18.9674 5.45477 18.4697C5.94874 17.972 6.61871 17.6924 7.3173 17.6924C8.01588 17.6924 8.68585 17.972 9.17983 18.4697C9.6738 18.9674 9.95131 19.6424 9.95131 20.3462C9.95131 21.05 9.6738 21.725 9.17983 22.2227C8.68585 22.7204 8.01588 23 7.3173 23ZM6.43929 20.3462C6.43929 20.5808 6.5318 20.8058 6.69646 20.9717C6.86111 21.1376 7.08444 21.2308 7.3173 21.2308C7.55016 21.2308 7.77348 21.1376 7.93814 20.9717C8.1028 20.8058 8.1953 20.5808 8.1953 20.3462C8.1953 20.1116 8.1028 19.8866 7.93814 19.7207C7.77348 19.5548 7.55016 19.4616 7.3173 19.4616C7.08444 19.4616 6.86111 19.5548 6.69646 19.7207C6.5318 19.8866 6.43929 20.1116 6.43929 20.3462ZM17.8533 23C17.1548 23 16.4848 22.7204 15.9908 22.2227C15.4968 21.725 15.2193 21.05 15.2193 20.3462C15.2193 19.6424 15.4968 18.9674 15.9908 18.4697C16.4848 17.972 17.1548 17.6924 17.8533 17.6924C18.5519 17.6924 19.2219 17.972 19.7159 18.4697C20.2098 18.9674 20.4874 19.6424 20.4874 20.3462C20.4874 21.05 20.2098 21.725 19.7159 22.2227C19.2219 22.7204 18.5519 23 17.8533 23ZM16.9753 20.3462C16.9753 20.5808 17.0678 20.8058 17.2325 20.9717C17.3972 21.1376 17.6205 21.2308 17.8533 21.2308C18.0862 21.2308 18.3095 21.1376 18.4742 20.9717C18.6388 20.8058 18.7314 20.5808 18.7314 20.3462C18.7314 20.1116 18.6388 19.8866 18.4742 19.7207C18.3095 19.5548 18.0862 19.4616 17.8533 19.4616C17.6205 19.4616 17.3972 19.5548 17.2325 19.7207C17.0678 19.8866 16.9753 20.1116 16.9753 20.3462Z" fill="black"/>
</svg>
