<svg width="24" height="24" viewBox="0 0 24 24" fill="none" xmlns="http://www.w3.org/2000/svg">
<path d="M6.68927 6.74251L10.3548 0.534493C10.4739 0.336115 10.615 0.197438 10.7781 0.118463C10.9403 0.0394878 11.1181 0 11.3114 0C11.5048 0 11.683 0.0394878 11.8461 0.118463C12.0092 0.197438 12.1498 0.336115 12.268 0.534493L15.9349 6.74251C16.0541 6.93243 16.1136 7.13174 16.1136 7.34046C16.1136 7.54918 16.0655 7.74145 15.9693 7.91726C15.8731 8.09308 15.7425 8.23175 15.5776 8.33329C15.4127 8.43483 15.2216 8.48607 15.0045 8.48701H7.61975C7.40076 8.48701 7.20925 8.43577 7.04524 8.33329C6.88123 8.23175 6.75112 8.09543 6.65491 7.92431C6.5587 7.7532 6.51014 7.56329 6.50922 7.35457C6.5083 7.14585 6.56786 6.94183 6.68789 6.74251M18.8707 24C17.4349 24 16.2213 23.4914 15.2299 22.4741C14.2385 21.4568 13.7428 20.2115 13.7428 18.7383C13.7428 17.265 14.2385 16.0197 15.2299 15.0025C16.2213 13.9852 17.4349 13.4766 18.8707 13.4766C20.3065 13.4766 21.5201 13.9852 22.5115 15.0025C23.5029 16.0197 23.9986 17.265 23.9986 18.7383C23.9986 20.2115 23.5029 21.4568 22.5115 22.4741C21.5201 23.4914 20.3065 24 18.8707 24ZM0 22.154V15.3141C0 14.9917 0.10583 14.7223 0.317489 14.5061C0.530981 14.2898 0.794869 14.1817 1.10915 14.1817H7.77505C8.09025 14.1817 8.35322 14.2908 8.56397 14.5089C8.77471 14.7279 8.88008 14.9992 8.88008 15.3226V22.1624C8.88008 22.4849 8.77334 22.7543 8.55984 22.9705C8.34727 23.1867 8.08338 23.2949 7.76818 23.2949H1.10228C0.787997 23.2949 0.525484 23.1853 0.314741 22.9663C0.103997 22.7481 0 22.4774 0 22.154ZM18.8693 22.5897C19.9203 22.5897 20.8091 22.2174 21.5357 21.4728C22.2623 20.7282 22.6251 19.8167 22.6242 18.7383C22.6233 17.6599 22.2604 16.7484 21.5357 16.0038C20.8109 15.2591 19.9226 14.8868 18.8707 14.8868C17.8188 14.8868 16.9305 15.2591 16.2057 16.0038C15.4809 16.7484 15.1181 17.6599 15.1172 18.7383C15.1163 19.8167 15.4791 20.7282 16.2057 21.4728C16.9323 22.2174 17.8202 22.5897 18.8693 22.5897ZM1.37304 21.8846H7.50567V15.592H1.37304V21.8846ZM8.04994 7.07674H14.5729L11.3114 1.71207L8.04994 7.07674Z" fill="#999999"/>
</svg>
