<svg width="26" height="24" viewBox="0 0 26 24" fill="none" xmlns="http://www.w3.org/2000/svg">
<path d="M22.8994 2.85655C22.3129 2.26797 21.6167 1.80107 20.8503 1.48251C20.084 1.16396 19.2626 1 18.4331 1C17.6035 1 16.7821 1.16396 16.0158 1.48251C15.2494 1.80107 14.5532 2.26797 13.9667 2.85655L12.7497 4.07749L11.5326 2.85655C10.3481 1.66822 8.74152 1.00062 7.06633 1.00062C5.39114 1.00062 3.78455 1.66822 2.60001 2.85655C1.41547 4.04489 0.75 5.65662 0.75 7.33718C0.75 9.01774 1.41547 10.6295 2.60001 11.8178L3.81705 13.0387L12.7497 22L21.6823 13.0387L22.8994 11.8178C23.4861 11.2295 23.9515 10.531 24.269 9.76219C24.5866 8.99339 24.75 8.16936 24.75 7.33718C24.75 6.50499 24.5866 5.68096 24.269 4.91216C23.9515 4.14336 23.4861 3.44486 22.8994 2.85655Z" fill="black" stroke="black" stroke-width="1.5" stroke-linecap="round" stroke-linejoin="round"/>
</svg>
