<svg width="24" height="24" viewBox="0 0 24 24" fill="none" xmlns="http://www.w3.org/2000/svg">
<g clip-path="url(#clip0_57_1032)">
<path d="M11.25 18C11.25 18.1989 11.329 18.3897 11.4697 18.5303C11.6103 18.671 11.8011 18.75 12 18.75C12.1989 18.75 12.3897 18.671 12.5303 18.5303C12.671 18.3897 12.75 18.1989 12.75 18V15C12.75 14.8011 12.671 14.6103 12.5303 14.4697C12.3897 14.329 12.1989 14.25 12 14.25C11.8011 14.25 11.6103 14.329 11.4697 14.4697C11.329 14.6103 11.25 14.8011 11.25 15V18Z" fill="#999999"/>
<path fill-rule="evenodd" clip-rule="evenodd" d="M12 0C11.2097 0 10.4919 0.226605 9.71163 0.605023C8.95926 0.971163 8.08856 1.51144 7.00242 2.18567L4.69507 3.61786C3.66809 4.25637 2.84316 4.76763 2.20912 5.25321C1.55163 5.75554 1.04707 6.26902 0.682046 6.93544C0.318139 7.59963 0.155163 8.30735 0.0759069 9.14344C-4.99016e-08 9.95274 0 10.944 0 12.1864V13.987C0 16.1124 0 17.7901 0.170791 19.1018C0.34493 20.4469 0.713302 21.533 1.54381 22.3914C2.37767 23.2543 3.43814 23.6406 4.75312 23.8225C6.02567 24 7.65321 24 9.7027 24H14.2973C16.3468 24 17.9743 24 19.2469 23.8225C20.5607 23.6406 21.6223 23.2543 22.4573 22.3914C23.2867 21.533 23.6551 20.4469 23.8303 19.1018C24 17.7901 24 16.1124 24 13.987V12.1864C24 10.944 24 9.95386 23.9241 9.14344C23.846 8.30623 23.6819 7.59963 23.318 6.93544C22.9529 6.26902 22.4473 5.75665 21.7909 5.25321C21.1568 4.76651 20.333 4.25637 19.3049 3.61786L16.9976 2.18567C15.9114 1.51144 15.0407 0.971163 14.2873 0.605023C13.5092 0.225488 12.7914 0 12 0ZM7.84744 3.63237C8.98046 2.92912 9.77861 2.43572 10.445 2.11088C11.0936 1.79498 11.5535 1.67442 12 1.67442C12.4465 1.67442 12.9064 1.79498 13.555 2.11088C14.2225 2.4346 15.0195 2.92912 16.1526 3.63237L18.3851 5.01767C19.4579 5.68409 20.2114 6.15181 20.774 6.5827C21.3198 7.0013 21.6335 7.34623 21.8489 7.73916C22.0644 8.13321 22.1905 8.59423 22.2564 9.29972C22.3245 10.0231 22.3256 10.9351 22.3256 12.2277V13.9256C22.3256 16.1247 22.3234 17.6941 22.1693 18.8852C22.0175 20.0551 21.7306 20.7338 21.254 21.2283C20.7795 21.7183 20.1343 22.0097 19.0169 22.1648C17.8716 22.3234 16.3613 22.3256 14.2326 22.3256H9.76744C7.63758 22.3256 6.12837 22.3234 4.98307 22.1648C3.86567 22.0086 3.22047 21.7183 2.74716 21.2272C2.2694 20.7338 1.98251 20.0551 1.83181 18.8852C1.67553 17.6941 1.67442 16.1258 1.67442 13.9256V12.2277C1.67442 10.9351 1.67442 10.0231 1.74363 9.29972C1.80949 8.59423 1.93563 8.13321 2.15107 7.73916C2.36651 7.34623 2.68019 7.0013 3.22716 6.5827C3.78865 6.15181 4.54214 5.68409 5.61488 5.01767L7.84744 3.63237Z" fill="#999999"/>
</g>
<defs>
<clipPath id="clip0_57_1032">
<rect width="24" height="24" fill="white"/>
</clipPath>
</defs>
</svg>
